<?xml version="1.0" encoding="utf-8"?>
<svg id="Layer_1" data-name="Layer 1" xmlns="http://www.w3.org/2000/svg" viewBox="0 0 70.76 41.1"><defs><style>.cls-1{fill:#1b75bc;}.cls-2{fill:#fff;}.cls-3,.cls-4{fill:#1e3c71;stroke:#1e3c71;stroke-miterlimit:10;}.cls-3{stroke-width:0.25px;}.cls-4{stroke-width:0.5px;}.cls-5{fill:#585852;}.cls-6{fill:#231f20;}</style></defs><title>app</title><g id="App"><path class="cls-1" d="M67.65,49.75H43.74l-.19-.08a3.44,3.44,0,0,1-2.94-3.37c0-3.52,0-7,0-10.55V20.47q0-4.17,0-8.34a3.45,3.45,0,0,1,2.8-3.35l.51-.13H67.56a.34.34,0,0,0,.11.07c2.12.5,3.14,1.69,3.14,3.66q0,9.56,0,19.1,0,7.39,0,14.8a3.49,3.49,0,0,1-2.92,3.39ZM44.35,12.1v4.82q0,11.94,0,23.88c0,.31.07.44.46.44H67V12.1ZM55.69,46.37c.9,0,1.8,0,2.7,0,.68,0,1.13-.38,1.12-.9s-.45-.86-1.11-.86H53.05c-.7,0-1.14.35-1.14.88s.45.88,1.13.88C53.93,46.38,54.81,46.37,55.69,46.37Z" transform="translate(-0.06 -8.65)"/><path class="cls-2" d="M44.35,12.1H67V41.23H44.8c-.39,0-.46-.13-.46-.44q0-11.94,0-23.88V12.1Z" transform="translate(-0.06 -8.65)"/><path class="cls-2" d="M55.71,15.48h1a.85.85,0,0,0,.88-.78.82.82,0,0,0-.82-.88q-1,0-2.07,0a.85.85,0,0,0-.83.88.87.87,0,0,0,.9.78Z" transform="translate(-0.06 -8.65)"/><path class="cls-2" d="M64.2,15.48a.89.89,0,0,0,.94-.83.91.91,0,0,0-.93-.84.87.87,0,0,0-.91.82A.85.85,0,0,0,64.2,15.48Z" transform="translate(-0.06 -8.65)"/><path class="cls-3" d="M50.75,33.77l2.11,2.5.27.32a1.11,1.11,0,0,1,.07,1.19.45.45,0,0,1-.78.11c-.35-.39-.69-.8-1-1.2l-1.87-2.21a1.08,1.08,0,0,1,0-1.42l2.79-3.29a.43.43,0,0,1,.68-.1.88.88,0,0,1,.26.85,1.34,1.34,0,0,1-.26.58c-.64.79-1.29,1.55-1.95,2.32Z" transform="translate(-0.06 -8.65)"/><path class="cls-4" d="M60.58,33.85l-.38-.6-1.33-2A1.39,1.39,0,0,1,58.74,30c.17-.41.44-.43.69-.05.7,1.06,1.4,2.12,2.09,3.19a1.31,1.31,0,0,1,0,1.5l-2.14,3.25c-.25.38-.5.36-.67,0a1.39,1.39,0,0,1,.13-1.29c.53-.82,1.07-1.64,1.61-2.46Z" transform="translate(-0.06 -8.65)"/><path class="cls-4" d="M55,39.51c-.26,0-.4-.52-.31-1.12l.84-5.61c.22-1.45.45-2.91.66-4.36.05-.34.15-.58.31-.65s.51.47.41,1.13c-.23,1.57-.47,3.14-.71,4.7-.26,1.75-.53,3.49-.79,5.23C55.29,39.31,55.17,39.51,55,39.51Z" transform="translate(-0.06 -8.65)"/><path class="cls-5" d="M55.71,15.48h-1a.87.87,0,0,1-.9-.78.85.85,0,0,1,.83-.88q1,0,2.07,0a.82.82,0,0,1,.82.88.85.85,0,0,1-.88.78Z" transform="translate(-0.06 -8.65)"/><path class="cls-5" d="M64.2,15.48a.85.85,0,0,1-.9-.85.87.87,0,0,1,.91-.82.91.91,0,0,1,.93.84A.89.89,0,0,1,64.2,15.48Z" transform="translate(-0.06 -8.65)"/><rect class="cls-2" x="36.32" y="7.23" width="28.8" height="10.69"/><path class="cls-6" d="M1.56,23.26l-.25,2.33H.06l1.18-9H3l1.21,9H3L2.7,23.26Zm.57-5.53-.48,4.55h1Z" transform="translate(-0.06 -8.65)"/><path class="cls-6" d="M4.8,16.55H7.63l.78.72v4L7.63,22H6.05v3.62H4.8Zm2.36,4.24V17.74l-.26-.23H6.05V21H6.9Z" transform="translate(-0.06 -8.65)"/><path class="cls-6" d="M9.08,16.55H11.9l.79.72v4L11.9,22H10.33v3.62H9.08Zm2.35,4.24V17.74l-.26-.23h-.84V21h.84Z" transform="translate(-0.06 -8.65)"/><path class="cls-6" d="M19.15,17.27v7.61l-.78.71H15.44v-9h2.93ZM17.9,24.38V17.77l-.26-.24h-.95v7.08h.95Z" transform="translate(-0.06 -8.65)"/><path class="cls-6" d="M20,16.55h3.09v1H21.22v3h1.61v1H21.22v3.11h1.87v1H20Z" transform="translate(-0.06 -8.65)"/><path class="cls-6" d="M24.57,25.59l-1.13-9h1.22l.81,7.7.81-7.7h1.17l-1.13,9Z" transform="translate(-0.06 -8.65)"/><path class="cls-6" d="M28,16.55h3.09v1H29.25v3h1.6v1h-1.6v3.11h1.87v1H28Z" transform="translate(-0.06 -8.65)"/><path class="cls-6" d="M31.78,25.59v-9H33v8.06h1.66v1Z" transform="translate(-0.06 -8.65)"/><path class="cls-6" d="M39,24.88l-.78.71H36l-.78-.71V17.27l.78-.72h2.18l.78.72Zm-2.23-7.35-.26.24v6.61l.26.23h.72l.26-.23V17.77l-.26-.24Z" transform="translate(-0.06 -8.65)"/><path class="cls-6" d="M39.77,16.55H42.6l.78.72v4L42.6,22H41v3.62H39.77Zm2.36,4.24V17.74l-.26-.23H41V21h.85Z" transform="translate(-0.06 -8.65)"/><path class="cls-6" d="M46.16,25.59l-1-7.09v7.09H44.05v-9h1.81l.92,7.3.93-7.3h1.85v9H48.37V18.5l-1,7.09Z" transform="translate(-0.06 -8.65)"/><path class="cls-6" d="M50.42,16.55h3.09v1H51.67v3h1.6v1h-1.6v3.11h1.86v1H50.42Z" transform="translate(-0.06 -8.65)"/><path class="cls-6" d="M54.2,16.55h1.35L57,22.82V16.55h1.13v9H56.77l-1.44-6.17v6.17H54.2Z" transform="translate(-0.06 -8.65)"/><path class="cls-6" d="M61.11,17.51v8.08H59.85V17.51H58.67v-1h3.62v1Z" transform="translate(-0.06 -8.65)"/></g></svg>