<?xml version="1.0" encoding="utf-8"?>
<svg id="Layer_1" data-name="Layer 1" xmlns="http://www.w3.org/2000/svg" viewBox="0 0 71.43 41.07"><defs><style>.cls-1{fill:#585852;}.cls-2{fill:#1b75bc;}.cls-3,.cls-4{fill:#1e3c71;stroke:#1e3c71;stroke-miterlimit:10;}.cls-3{stroke-width:0.5px;}.cls-4{stroke-width:0.25px;}.cls-5{fill:#fff;}.cls-6{fill:#231f20;}</style></defs><title>arc</title><g id="Architecture"><polygon class="cls-1" points="36.05 3.44 37.91 7.97 50.62 3.47 36.05 3.44"/><path class="cls-2" d="M61.52,27.5H51.39a.86.86,0,0,1-.85-.86V19.8H32a.86.86,0,0,1,0-1.72H51.39a.86.86,0,0,1,.84.86v6.84h9.29a.86.86,0,0,1,0,1.72Z" transform="translate(-0.22 -8.67)"/><path class="cls-3" d="M54.76,43.75a.85.85,0,0,1-.84-.85V36.05H40.42a.84.84,0,0,1-.84-.85V24.93a.84.84,0,1,1,1.68,0v9.41h13.5a.85.85,0,0,1,.85.86v7.7A.85.85,0,0,1,54.76,43.75Z" transform="translate(-0.22 -8.67)"/><path class="cls-2" d="M32.29,43.25a.86.86,0,0,1,0-1.71L48,41.47h0a.86.86,0,0,1,0,1.71l-15.73.07Z" transform="translate(-0.22 -8.67)"/><path class="cls-4" d="M61.52,19.8a.85.85,0,0,1-.85-.84V9.76a.85.85,0,0,1,1.69,0V19A.85.85,0,0,1,61.52,19.8Z" transform="translate(-0.22 -8.67)"/><path class="cls-4" d="M61.52,49.27a.85.85,0,0,1-.85-.84V31.75a.85.85,0,0,1,1.69,0V48.43A.85.85,0,0,1,61.52,49.27Z" transform="translate(-0.22 -8.67)"/><path class="cls-2" d="M70.53,40.19H65.7a.79.79,0,1,1,0-1.57h4.83a.79.79,0,1,1,0,1.57Z" transform="translate(-0.22 -8.67)"/><path class="cls-2" d="M70.8,49.74H32a.84.84,0,0,1-.84-.85V9.53A.85.85,0,0,1,32,8.67H70.8a.86.86,0,0,1,.84.86V48.89A.85.85,0,0,1,70.8,49.74ZM32.82,48H70V10.38H32.82Z" transform="translate(-0.22 -8.67)"/><rect class="cls-5" x="21.48" y="14.46" width="25.05" height="10.78"/><path class="cls-6" d="M1.56,30.74l-.22,2.33H.22l1.06-9H2.9l1.09,9H2.82l-.23-2.33Zm.52-5.53-.43,4.55h.86Z" transform="translate(-0.22 -8.67)"/><path class="cls-6" d="M4.48,24h2.6l.71.72V28.5l-.62.63.7,3.94H6.78l-.69-3.85H5.61v3.85H4.48Zm2.18,4V25.22L6.43,25H5.61v3.31h.82Z" transform="translate(-0.22 -8.67)"/><path class="cls-6" d="M8.5,24.75,9.21,24h1.73l.7.72v2H10.52V25.22L10.28,25H9.86l-.23.24v6.63l.23.24h.42l.24-.24V30.31h1.12v2l-.7.72H9.21l-.71-.72Z" transform="translate(-0.22 -8.67)"/><path class="cls-6" d="M13.41,28H14.6V24h1.12v9H14.6V29H13.41v4H12.29V24h1.12Z" transform="translate(-0.22 -8.67)"/><path class="cls-6" d="M16.5,24h1.12v9H16.5Z" transform="translate(-0.22 -8.67)"/><path class="cls-6" d="M20.3,25v8.09H19.18V25H18.11V24h3.26V25Z" transform="translate(-0.22 -8.67)"/><path class="cls-6" d="M21.86,24h2.78v1H23v3h1.44v1H23v3.11h1.67v1h-2.8Z" transform="translate(-0.22 -8.67)"/><path class="cls-6" d="M25.23,24.75l.7-.72h1.74l.7.72v2H27.24V25.22L27,25h-.42l-.24.24v6.63l.24.24H27l.23-.24V30.31h1.13v2l-.7.72H25.93l-.7-.72Z" transform="translate(-0.22 -8.67)"/><path class="cls-6" d="M30.88,25v8.09H29.75V25H28.69V24h3.25V25Z" transform="translate(-0.22 -8.67)"/><path class="cls-6" d="M35,33.07H33.13l-.71-.72V24h1.13v7.82l.23.24h.58l.23-.24V24h1.13v8.32Z" transform="translate(-0.22 -8.67)"/><path class="cls-6" d="M36.48,24h2.6l.71.72V28.5l-.63.63.71,3.94H38.78l-.69-3.85h-.48v3.85H36.48Zm2.18,4V25.22L38.43,25h-.82v3.31h.82Z" transform="translate(-0.22 -8.67)"/><path class="cls-6" d="M40.58,24h2.78v1H41.71v3h1.44v1H41.71v3.11h1.67v1h-2.8Z" transform="translate(-0.22 -8.67)"/><path class="cls-5" d="M38.23,13.56H35.46a.13.13,0,0,1-.13-.14.13.13,0,0,1,.13-.13h2.77a.13.13,0,0,1,.13.13A.13.13,0,0,1,38.23,13.56Z" transform="translate(-0.22 -8.67)"/><path class="cls-5" d="M39.39,14.39H36.61a.13.13,0,0,1-.13-.13.13.13,0,0,1,.13-.14h2.78a.13.13,0,0,1,.13.14A.13.13,0,0,1,39.39,14.39Z" transform="translate(-0.22 -8.67)"/><path class="cls-5" d="M38.47,15.12H35.69a.13.13,0,0,1-.13-.13.13.13,0,0,1,.13-.14h2.78a.13.13,0,0,1,.13.14A.13.13,0,0,1,38.47,15.12Z" transform="translate(-0.22 -8.67)"/></g></svg>