<?xml version="1.0" encoding="utf-8"?>
<svg id="Layer_1" data-name="Layer 1" xmlns="http://www.w3.org/2000/svg" viewBox="0 0 83.7 41.21"><defs><style>.cls-1{fill:#1b75bc;stroke:#1b75bc;}.cls-1,.cls-10,.cls-11,.cls-12,.cls-3,.cls-6,.cls-7,.cls-8,.cls-9{stroke-miterlimit:10;}.cls-1,.cls-11,.cls-8,.cls-9{stroke-width:0.5px;}.cls-10,.cls-2,.cls-8{fill:#fff;}.cls-12,.cls-3,.cls-4{fill:none;stroke-width:5px;}.cls-3,.cls-4,.cls-9{stroke:#1a75bc;}.cls-4{stroke-linecap:round;stroke-linejoin:round;}.cls-11,.cls-5,.cls-7{fill:#585852;}.cls-6{fill:#1e3c71;stroke:#1e3c71;stroke-width:3px;}.cls-11,.cls-12,.cls-7{stroke:#585852;}.cls-10,.cls-8{stroke:#fff;}.cls-9{fill:#1a75bc;}.cls-10{stroke-width:7px;}.cls-13{fill:#231f20;}</style></defs><title>big</title><g id="Big_Data" data-name="Big Data"><rect class="cls-1" x="4.24" y="0.25" width="46.8" height="31.97"/><rect class="cls-2" x="7.28" y="2.53" width="40.47" height="25.99"/><ellipse class="cls-2" cx="46.8" cy="30.28" rx="0.79" ry="0.86"/><line class="cls-3" x1="18.03" y1="35.98" x2="36.85" y2="35.98"/><line class="cls-4" x1="12.1" y1="38.71" x2="42" y2="38.71"/><path class="cls-5" d="M10,15.6H9.47V15H10.7v5.76H10Z" transform="translate(-0.08 -8.65)"/><path class="cls-5" d="M14.8,20.29l-.45.45h-1.2l-.45-.45V15.43l.45-.45h1.2l.45.45ZM13.58,15.6l-.15.15V20l.15.15h.34l.15-.15V15.75l-.15-.15Z" transform="translate(-0.08 -8.65)"/><path class="cls-5" d="M18.87,20.29l-.45.45H17.23l-.46-.45V15.43l.46-.45h1.19l.45.45ZM17.65,15.6l-.15.15V20l.15.15H18l.16-.15V15.75L18,15.6Z" transform="translate(-0.08 -8.65)"/><path class="cls-5" d="M21.19,15.6h-.51V15h1.24v5.76h-.73Z" transform="translate(-0.08 -8.65)"/><path class="cls-5" d="M26,20.29l-.45.45H24.37l-.46-.45V15.43l.46-.45h1.19l.45.45ZM24.79,15.6l-.15.15V20l.15.15h.34l.16-.15V15.75l-.16-.15Z" transform="translate(-0.08 -8.65)"/><path class="cls-5" d="M30.09,20.29l-.46.45H28.44L28,20.29V15.43l.45-.45h1.19l.46.45ZM28.87,15.6l-.16.15V20l.16.15h.34l.15-.15V15.75l-.15-.15Z" transform="translate(-0.08 -8.65)"/><path class="cls-5" d="M32.4,15.6h-.51V15h1.24v5.76H32.4Z" transform="translate(-0.08 -8.65)"/><path class="cls-5" d="M37.23,20.29l-.46.45H35.58l-.45-.45V15.43l.45-.45h1.19l.46.45ZM36,15.6l-.16.15V20l.16.15h.34L36.5,20V15.75l-.15-.15Z" transform="translate(-0.08 -8.65)"/><path class="cls-5" d="M41.3,20.29l-.45.45H39.66l-.46-.45V15.43l.46-.45h1.19l.45.45ZM40.08,15.6l-.15.15V20l.15.15h.34l.15-.15V15.75l-.15-.15Z" transform="translate(-0.08 -8.65)"/><path class="cls-5" d="M43.62,15.6h-.51V15h1.23v5.76h-.72Z" transform="translate(-0.08 -8.65)"/><rect class="cls-6" x="59.19" y="1.8" width="23.01" height="28.05"/><rect class="cls-2" x="59.98" y="2.44" width="21.6" height="26.44"/><line class="cls-7" x1="62.12" y1="5.58" x2="78.71" y2="5.58"/><line class="cls-7" x1="62.16" y1="9.65" x2="78.75" y2="9.65"/><line class="cls-7" x1="62.16" y1="13.72" x2="78.75" y2="13.72"/><line class="cls-7" x1="62.21" y1="17.79" x2="78.8" y2="17.79"/><line class="cls-7" x1="62.12" y1="21.87" x2="78.71" y2="21.87"/><line class="cls-7" x1="62.16" y1="25.94" x2="78.75" y2="25.94"/><polygon class="cls-8" points="60.68 24.21 53.46 30.39 53.46 18.03 60.68 24.21"/><polygon class="cls-9" points="59.13 24.1 54.65 27.93 54.65 20.26 59.13 24.1"/><line class="cls-3" x1="48.02" y1="24.29" x2="54.61" y2="24.29"/><line class="cls-10" x1="60.09" y1="9.91" x2="51.42" y2="9.86"/><polygon class="cls-8" points="46.36 9.8 53.21 16.05 53.21 3.54 46.36 9.8"/><polygon class="cls-11" points="47.8 9.66 52 13.5 52 5.83 47.8 9.66"/><line class="cls-12" x1="58.62" y1="9.86" x2="51.7" y2="9.85"/><rect class="cls-2" x="0.22" y="14.19" width="34.06" height="11.1"/><path class="cls-13" d="M3.44,24.72v3l-.72.72.72.71v3.18L2.72,33H.08V24H2.72Zm-1.14,3V25.19L2.06,25H1.23v3h.83ZM1.23,28.92v3.14h.83l.24-.24V29.16l-.24-.24Z" transform="translate(-0.08 -8.65)"/><path class="cls-13" d="M4.16,24H5.3v9H4.16Z" transform="translate(-0.08 -8.65)"/><path class="cls-13" d="M6.05,24.72,6.76,24H8.63l.71.72v1.91H8.2V25.22L8,25H7.43l-.24.24v6.6l.24.24H8l.24-.24V29.35H7.63v-1H9.34v4L8.63,33H6.76l-.71-.72Z" transform="translate(-0.08 -8.65)"/><path class="cls-13" d="M15.35,24.72v7.6l-.71.72H12V24h2.68Zm-1.14,7.1v-6.6L14,25h-.86v7.08H14Z" transform="translate(-0.08 -8.65)"/><path class="cls-13" d="M17.11,30.71,16.88,33H15.74l1.08-9h1.64l1.11,9H18.38l-.22-2.33Zm.52-5.53-.44,4.55h.88Z" transform="translate(-0.08 -8.65)"/><path class="cls-13" d="M21.41,25V33H20.27V25H19.19V24h3.3V25Z" transform="translate(-0.08 -8.65)"/><path class="cls-13" d="M23.48,30.71,23.25,33H22.11l1.08-9h1.64l1.11,9H24.75l-.23-2.33ZM24,25.18l-.44,4.55h.88Z" transform="translate(-0.08 -8.65)"/></g></svg>