<?xml version="1.0" encoding="utf-8"?>
<svg id="Layer_1" data-name="Layer 1" xmlns="http://www.w3.org/2000/svg" viewBox="0 0 68.55 41.44"><defs><style>.cls-1{fill:#1b75bc;}.cls-2{fill:#fff;}.cls-3{fill:#231f20;}</style></defs><title>blo</title><g id="Blockchain"><path class="cls-1" d="M68,27.47,49.69,9.16a2.41,2.41,0,0,0-3.41,0L28,27.47a2.4,2.4,0,0,0,0,3.41L36,38.93l3.4-3.41-6.34-6.35,7.42-7.42,7.42,7.42L33,44.08,18.12,29.17,33,14.27l3,3.05,3.41-3.41L34.72,9.16a2.4,2.4,0,0,0-3.4,0L13,27.47a2.43,2.43,0,0,0,0,3.41L31.31,49.19A2.45,2.45,0,0,0,33,49.9a2.41,2.41,0,0,0,1.7-.71l5.78-5.78,5.78,5.78a2.39,2.39,0,0,0,3.4,0L68,30.88a2.43,2.43,0,0,0,0-3.41ZM48,44.08,43.91,40,53,30.88a2.4,2.4,0,0,0,0-3.41l-9.12-9.12L48,14.27l14.9,14.9Z" transform="translate(-0.15 -8.45)"/><rect class="cls-2" x="0.38" y="14.67" width="40.62" height="10.69"/><path class="cls-3" d="M3.5,24.7v3l-.71.72.71.71v3.19L2.79,33H.15V24H2.79Zm-1.14,3V25.17l-.24-.23H1.29v3h.83ZM1.29,28.91V32h.83l.24-.23V29.14l-.24-.23Z" transform="translate(-0.15 -8.45)"/><path class="cls-3" d="M4.22,33V24H5.36V32H6.87v1Z" transform="translate(-0.15 -8.45)"/><path class="cls-3" d="M10.76,32.31l-.71.71h-2l-.71-.71V24.7L8.06,24h2l.71.71ZM8.73,25l-.24.24v6.61l.24.23h.65l.24-.23V25.2L9.38,25Z" transform="translate(-0.15 -8.45)"/><path class="cls-3" d="M11.47,24.7l.71-.71h1.76l.72.71v2H13.51V25.17l-.23-.23h-.43l-.24.23v6.64l.24.23h.43l.23-.23V30.26h1.15v2.05l-.72.71H12.18l-.71-.71Z" transform="translate(-0.15 -8.45)"/><path class="cls-3" d="M16.45,30.87V33H15.31V24h1.14V28.8L17.8,24H19l-1.24,4L19,33H17.84L17,29.32Z" transform="translate(-0.15 -8.45)"/><path class="cls-3" d="M21.26,24.7,22,24h1.76l.71.71v2H23.3V25.17l-.23-.23h-.43l-.24.23v6.64l.24.23h.43l.23-.23V30.26h1.14v2.05l-.71.71H22l-.71-.71Z" transform="translate(-0.15 -8.45)"/><path class="cls-3" d="M26.24,28h1.2V24h1.14v9H27.44V29h-1.2v4H25.1V24h1.14Z" transform="translate(-0.15 -8.45)"/><path class="cls-3" d="M30.44,30.69,30.22,33H29.08l1.08-9H31.8l1.1,9H31.71l-.22-2.33ZM31,25.16l-.44,4.55h.88Z" transform="translate(-0.15 -8.45)"/><path class="cls-3" d="M33.4,24h1.14v9H33.4Z" transform="translate(-0.15 -8.45)"/><path class="cls-3" d="M35.32,24h1.24l1.31,6.26V24h1v9H37.67l-1.31-6.17V33h-1Z" transform="translate(-0.15 -8.45)"/></g></svg>