<?xml version="1.0" encoding="utf-8"?>
<svg id="Layer_1" data-name="Layer 1" xmlns="http://www.w3.org/2000/svg" viewBox="0 0 63.44 41.59"><defs><style>.cls-1{fill:#231f20;}.cls-2{fill:#010101;stroke-linecap:round;stroke-linejoin:round;}.cls-2,.cls-3,.cls-4,.cls-5,.cls-6{stroke:#231f20;}.cls-3{fill:none;}.cls-3,.cls-4,.cls-5,.cls-6{stroke-miterlimit:10;}.cls-4,.cls-7{fill:#585852;}.cls-4,.cls-5,.cls-6{stroke-width:0.5px;}.cls-5,.cls-8{fill:#1b75bc;}.cls-6{fill:#1e3c71;}</style></defs><title>bpm</title><g id="BPM"><path class="cls-1" d="M3.32,24.61v2.72L2.63,28l.69.65v2.89l-.69.65H.07V24H2.63Zm-1.1,2.74V25L2,24.83h-.8v2.74H2Zm-1,1.08v2.86H2l.24-.22V28.65L2,28.43Z" transform="translate(-0.07 -8.59)"/><path class="cls-1" d="M6.56,32.17H4.71L4,31.52V24H5.12v7.11l.23.22h.57l.23-.22V24h1.1v7.56Z" transform="translate(-0.07 -8.59)"/><path class="cls-1" d="M9.89,25l-.23-.21h-.4L9,25v2.31l.23.22h1.08l.69.65v3.3l-.69.65H8.59l-.69-.65V29.81H9v1.28l.24.22H9.7l.23-.22V28.67l-.23-.21H8.61l-.69-.65v-3.2L8.61,24h1.7l.69.65v1.73H9.89Z" transform="translate(-0.07 -8.59)"/><path class="cls-1" d="M11.69,24H12.8v8.21H11.69Z" transform="translate(-0.07 -8.59)"/><path class="cls-1" d="M13.56,24h1.2L16,29.65V24h1v8.21h-1.2l-1.27-5.61v5.61h-1Z" transform="translate(-0.07 -8.59)"/><path class="cls-1" d="M17.79,24h2.73v.89H18.89v2.72h1.42v.89H18.89v2.83h1.65v.88H17.79Z" transform="translate(-0.07 -8.59)"/><path class="cls-1" d="M23,25l-.23-.21h-.4l-.23.21v2.31l.23.22H23.4l.69.65v3.3l-.69.65H21.65L21,31.52V29.81h1.1v1.28l.23.22h.47l.23-.22V28.67l-.23-.21H21.67L21,27.81v-3.2l.69-.65h1.7l.69.65v1.73H23Z" transform="translate(-0.07 -8.59)"/><path class="cls-1" d="M26.64,25l-.23-.21H26l-.23.21v2.31l.23.22h1.08l.69.65v3.3l-.69.65H25.34l-.69-.65V29.81h1.1v1.28l.23.22h.46l.23-.22V28.67l-.23-.21H25.36l-.69-.65v-3.2l.69-.65h1.69l.7.65v1.73H26.64Z" transform="translate(-0.07 -8.59)"/><path class="cls-1" d="M.07,33h2.5l.69.65v3.63l-.69.65H1.18v3.28H.07Zm2.09,3.85V34l-.23-.21H1.18V37h.75Z" transform="translate(-0.07 -8.59)"/><path class="cls-1" d="M3.85,33H6.41l.69.65V37l-.61.58.69,3.57H6.11l-.68-3.5H5v3.5H3.85ZM6,36.61V34l-.23-.21H5v3h.81Z" transform="translate(-0.07 -8.59)"/><path class="cls-1" d="M11.11,40.52l-.69.65H8.5l-.69-.65V33.61L8.5,33h1.92l.69.65Zm-2-6.67-.23.21v6l.23.22h.64l.23-.22v-6l-.23-.21Z" transform="translate(-0.07 -8.59)"/><path class="cls-1" d="M11.81,33.61,12.5,33h1.7l.69.65v1.85h-1.1V34l-.23-.21h-.42l-.23.21v6l.23.22h.42l.23-.22v-1.4h1.1v1.85l-.69.65H12.5l-.69-.65Z" transform="translate(-0.07 -8.59)"/><path class="cls-1" d="M15.53,33h2.73v.89H16.64v2.72h1.41v.89H16.64v2.83h1.64v.88H15.53Z" transform="translate(-0.07 -8.59)"/><path class="cls-1" d="M20.69,34l-.23-.21h-.4l-.23.21v2.31l.23.22h1.08l.69.65v3.3l-.69.65H19.39l-.69-.65V38.81h1.11v1.28l.23.22h.46l.23-.22V37.67l-.23-.21H19.41l-.69-.65v-3.2l.69-.65h1.7l.69.65v1.73H20.69Z" transform="translate(-0.07 -8.59)"/><path class="cls-1" d="M24.38,34l-.23-.21h-.4l-.23.21v2.31l.23.22h1.08l.69.65v3.3l-.69.65H23.08l-.69-.65V38.81h1.1v1.28l.23.22h.47l.23-.22V37.67l-.23-.21H23.1l-.69-.65v-3.2L23.1,33h1.7l.69.65v1.73H24.38Z" transform="translate(-0.07 -8.59)"/><path class="cls-1" d="M1.94,50.17l-.87-6.44v6.44h-1V42h1.6l.82,6.63L3.31,42H5v8.21H3.9V43.73L3,50.17Z" transform="translate(-0.07 -8.59)"/><path class="cls-1" d="M6.76,48.05l-.22,2.12H5.43L6.48,42H8.07l1.07,8.21H8l-.22-2.12Zm.5-5-.42,4.14h.85Z" transform="translate(-0.07 -8.59)"/><path class="cls-1" d="M9.63,42h1.2l1.26,5.69V42h1v8.21H11.9l-1.27-5.61v5.61h-1Z" transform="translate(-0.07 -8.59)"/><path class="cls-1" d="M14.91,48.05l-.22,2.12H13.58L14.63,42h1.59l1.07,8.21H16.14l-.22-2.12Zm.5-5L15,47.17h.85Z" transform="translate(-0.07 -8.59)"/><path class="cls-1" d="M17.67,42.61l.69-.65h1.81l.69.65v1.74h-1.1V43.06l-.23-.21H19l-.23.21v6l.23.22h.52l.23-.22V46.82h-.55v-.93h1.65v3.63l-.69.65H18.36l-.69-.65Z" transform="translate(-0.07 -8.59)"/><path class="cls-1" d="M21.57,42H24.3v.89H22.67v2.72h1.42v.89H22.67v2.83h1.65v.88H21.57Z" transform="translate(-0.07 -8.59)"/><path class="cls-1" d="M26.78,50.17l-.87-6.44v6.44h-1V42h1.6l.82,6.63L28.15,42h1.63v8.21h-1V43.73l-.87,6.44Z" transform="translate(-0.07 -8.59)"/><path class="cls-1" d="M30.55,42h2.73v.89H31.65v2.72h1.42v.89H31.65v2.83H33.3v.88H30.55Z" transform="translate(-0.07 -8.59)"/><path class="cls-1" d="M33.89,42h1.2l1.27,5.69V42h1v8.21h-1.2l-1.27-5.61v5.61h-1Z" transform="translate(-0.07 -8.59)"/><path class="cls-1" d="M40,42.83v7.34H38.89V42.83h-1V42h3.21v.87Z" transform="translate(-0.07 -8.59)"/><rect class="cls-2" x="0.53" y="0.5" width="8.01" height="5.31"/><line class="cls-3" x1="0.06" y1="9.15" x2="63.43" y2="9.2"/><line class="cls-3" x1="0.57" y1="9.61" x2="0.54" y2="5.85"/><line class="cls-3" x1="40.88" y1="15.5" x2="40.86" y2="5.59"/><line class="cls-3" x1="62.92" y1="9.62" x2="62.94" y2="4.6"/><polygon class="cls-4" points="41.01 23.78 49.71 23.8 45.34 31.87 41.01 23.78"/><polygon class="cls-4" points="40.92 23.73 36.58 15.64 32.21 23.71 40.92 23.73"/><polygon class="cls-5" points="40.95 23.9 36.59 31.98 45.3 31.98 40.95 23.9"/><polygon class="cls-6" points="41.04 23.68 45.4 15.61 49.75 23.7 41.04 23.68"/><polygon class="cls-6" points="40.86 23.83 32.15 23.84 36.52 31.91 40.86 23.83"/><polygon class="cls-5" points="45.32 15.55 36.61 15.55 40.97 23.63 45.32 15.55"/><polygon class="cls-7" points="6.56 4.47 4.85 1.02 1.92 3.99 6.56 4.47"/><rect class="cls-2" x="36.89" y="0.53" width="8.01" height="5.31"/><polygon class="cls-8" points="43.49 1.43 40.88 5.04 38.24 1.44 43.49 1.43"/><rect class="cls-2" x="54.93" y="0.57" width="8.01" height="5.31"/><polygon class="cls-6" points="56.98 5.11 62.23 4.11 58.17 0.95 56.98 5.11"/></g></svg>