<?xml version="1.0" encoding="utf-8"?>
<svg id="Layer_1" data-name="Layer 1" xmlns="http://www.w3.org/2000/svg" viewBox="0 0 59.91 48.15"><defs><style>.cls-1{fill:#231f20;}.cls-2,.cls-3{fill:#fff;}.cls-3{stroke:#fff;}.cls-3,.cls-4,.cls-5,.cls-6,.cls-7{stroke-miterlimit:10;}.cls-3,.cls-4{stroke-width:2px;}.cls-4,.cls-6{fill:#1b75bc;}.cls-4{stroke:#1b75bc;}.cls-5{fill:#585852;}.cls-5,.cls-6,.cls-7{stroke:#231f20;stroke-width:0.5px;}.cls-7{fill:#1e3c71;}</style></defs><title>clo</title><g id="Cloud"><ellipse class="cls-1" cx="37.71" cy="20.61" rx="4.46" ry="4.24" transform="translate(-5.35 11.91) rotate(-26.47)"/><ellipse class="cls-1" cx="39.34" cy="15.01" rx="4.46" ry="4.24" transform="translate(-2.69 12.05) rotate(-26.47)"/><ellipse class="cls-1" cx="34.59" cy="14.79" rx="4.46" ry="4.24" transform="translate(-3.09 9.92) rotate(-26.47)"/><ellipse class="cls-1" cx="33.12" cy="18.37" rx="4.46" ry="4.24" transform="translate(-4.84 9.63) rotate(-26.47)"/><ellipse class="cls-1" cx="29.48" cy="16.35" rx="4.46" ry="4.24" transform="translate(-4.32 7.8) rotate(-26.47)"/><ellipse class="cls-2" cx="37.67" cy="20.63" rx="3.72" ry="3.45" transform="translate(-5.16 9.05) rotate(-22.66)"/><ellipse class="cls-2" cx="39.47" cy="14.93" rx="3.72" ry="3.45" transform="translate(-2.82 9.3) rotate(-22.66)"/><ellipse class="cls-2" cx="35.64" cy="16.7" rx="5.92" ry="4.71" transform="translate(-3.52 4.67) rotate(-17.85)"/><ellipse class="cls-2" cx="29.28" cy="16.3" rx="3.72" ry="3.45" transform="translate(-4.14 5.49) rotate(-22.66)"/><ellipse class="cls-2" cx="34.46" cy="14.79" rx="3.72" ry="3.45" transform="translate(-3.16 7.36) rotate(-22.66)"/><ellipse class="cls-2" cx="33.08" cy="18.27" rx="3.72" ry="3.45" transform="translate(-4.61 7.1) rotate(-22.66)"/><ellipse class="cls-1" cx="51.27" cy="19.18" rx="6.14" ry="5.06" transform="translate(-3.44 8.05) rotate(-16.24)"/><ellipse class="cls-1" cx="53.97" cy="12.43" rx="6.14" ry="5.06" transform="translate(-1.44 8.54) rotate(-16.24)"/><ellipse class="cls-1" cx="47.49" cy="12.21" rx="6.14" ry="5.06" transform="translate(-1.64 6.72) rotate(-16.24)"/><ellipse class="cls-1" cx="45.18" cy="16.52" rx="6.14" ry="5.06" transform="translate(-2.94 6.24) rotate(-16.24)"/><ellipse class="cls-1" cx="40.37" cy="14.12" rx="6.14" ry="5.06" transform="translate(-2.46 4.8) rotate(-16.24)"/><ellipse class="cls-2" cx="51.22" cy="19.21" rx="5.13" ry="4.11" transform="translate(-3.43 7.75) rotate(-15.94)"/><ellipse class="cls-2" cx="54.15" cy="12.33" rx="5.13" ry="4.11" transform="translate(-1.43 8.29) rotate(-15.94)"/><ellipse class="cls-2" cx="48.78" cy="14.49" rx="8.17" ry="5.61" transform="translate(-2.21 6.12) rotate(-15.06)"/><ellipse class="cls-2" cx="40.11" cy="14.06" rx="5.13" ry="4.11" transform="translate(-2.44 4.5) rotate(-15.94)"/><ellipse class="cls-2" cx="47.31" cy="12.2" rx="5.13" ry="4.11" transform="translate(-1.65 6.41) rotate(-15.94)"/><ellipse class="cls-2" cx="45.13" cy="16.41" rx="5.13" ry="4.11" transform="translate(-2.89 5.97) rotate(-15.94)"/><polygon class="cls-3" points="58.38 8.63 57.98 17.36 33.7 17.85 34.1 9.12 58.38 8.63"/><polygon class="cls-4" points="1.58 37.68 5.75 47 47.79 37.79 1.58 37.68"/><rect class="cls-5" x="0.25" y="29.41" width="5.46" height="5.62"/><rect class="cls-6" x="7.53" y="29.41" width="5.46" height="5.62"/><rect class="cls-5" x="14.82" y="29.41" width="5.46" height="5.62"/><rect class="cls-6" x="22.1" y="29.41" width="5.46" height="5.62"/><rect class="cls-5" x="29.38" y="29.41" width="5.46" height="5.62"/><rect class="cls-7" x="36.66" y="29.41" width="5.46" height="5.62"/><rect class="cls-7" x="43.94" y="29.41" width="5.46" height="5.62"/><rect class="cls-5" x="51.22" y="29.41" width="5.46" height="5.62"/><rect class="cls-7" x="36.63" y="21.96" width="5.46" height="5.62"/><rect class="cls-5" x="43.94" y="21.95" width="5.46" height="5.62"/><rect class="cls-6" x="51.23" y="21.96" width="5.46" height="5.62"/><rect class="cls-5" x="36.65" y="14.52" width="5.46" height="5.62"/><rect class="cls-6" x="43.96" y="14.54" width="5.46" height="5.62"/><rect class="cls-5" x="51.22" y="14.53" width="5.46" height="5.62"/><rect class="cls-5" x="36.62" y="7.31" width="5.46" height="5.62"/><rect class="cls-6" x="43.95" y="7.33" width="5.46" height="5.62"/><rect class="cls-5" x="51.23" y="7.33" width="5.46" height="5.62"/><path d="M.12,17.3l.67-.67H2.45l.68.67v1.92H2.05V17.75l-.22-.22H1.42l-.22.22V24l.22.22h.41L2.05,24V22.55H3.13v1.93l-.68.67H.79l-.67-.67Z" transform="translate(-0.12 -7.06)"/><path d="M3.74,25.15V16.63H4.82v7.6H6.25v.92Z" transform="translate(-0.12 -7.06)"/><path d="M9.91,24.48l-.67.67H7.37l-.67-.67V17.3l.67-.67H9.24l.67.67ZM8,17.55l-.23.22V24l.23.22h.61L8.84,24V17.77l-.23-.22Z" transform="translate(-0.12 -7.06)"/><path d="M13.09,25.15H11.28l-.67-.67V16.63h1.08V24l.22.22h.55l.23-.22V16.63h1.07v7.85Z" transform="translate(-0.12 -7.06)"/><path d="M17.69,17.3v7.18l-.67.67H14.49V16.63H17ZM16.61,24V17.77l-.22-.22h-.82v6.68h.82Z" transform="translate(-0.12 -7.06)"/><path d="M23.29,21.2v3.28l-.68.67h-1.8l-.67-.67V21.42l.67-.68-.67-.67V17.3l.67-.67h1.8l.68.67v1.46H22.21v-1L22,17.55h-.55l-.23.22v2.29l.23.23h2.39v.91Zm-2.08.23V24l.23.22H22l.22-.22V21.2h-.77Z" transform="translate(-0.12 -7.06)"/><path d="M.12,26.3l.67-.67H2.45l.68.67v1.92H2.05V26.75l-.22-.22H1.42l-.22.22V33l.22.22h.41L2.05,33V31.55H3.13v1.93l-.68.67H.79l-.67-.67Z" transform="translate(-0.12 -7.06)"/><path d="M6.93,33.48l-.67.67H4.38l-.67-.67V26.3l.67-.67H6.26l.67.67ZM5,26.55l-.22.22V33l.22.22h.62L5.85,33V26.77l-.22-.22Z" transform="translate(-0.12 -7.06)"/><path d="M7.64,25.63H8.8L10,31.54V25.63h1v8.52H9.85L8.61,28.33v5.82h-1Z" transform="translate(-0.12 -7.06)"/><path d="M13.58,26.53v7.62H12.51V26.53h-1v-.9H14.6v.9Z" transform="translate(-0.12 -7.06)"/><path d="M15.54,32l-.22,2.2H14.25l1-8.52h1.54l1.05,8.52H16.74L16.52,32ZM16,26.74,15.61,31h.83Z" transform="translate(-0.12 -7.06)"/><path d="M18.33,25.63h1.08v8.52H18.33Z" transform="translate(-0.12 -7.06)"/><path d="M20.15,25.63h1.16l1.24,5.91V25.63h1v8.52H22.36l-1.24-5.82v5.82h-1Z" transform="translate(-0.12 -7.06)"/><path d="M24.27,25.63h2.65v.92H25.34v2.82h1.38v.92H25.34v2.94H27v.92H24.27Z" transform="translate(-0.12 -7.06)"/><path d="M27.52,25.63H30l.67.67v3.55l-.59.59.67,3.71h-1l-.66-3.63H28.6v3.63H27.52Zm2.08,3.79V26.75l-.22-.22H28.6v3.11h.78Z" transform="translate(-0.12 -7.06)"/><path d="M33.24,26.75,33,26.53h-.4l-.22.22v2.4l.22.22h1.06l.67.68v3.43l-.67.67H32l-.67-.67V31.7h1.08V33l.22.23h.45l.22-.23V30.52l-.22-.23H32l-.68-.67V26.3l.68-.67h1.64l.68.67v1.8H33.24Z" transform="translate(-0.12 -7.06)"/></g></svg>