<?xml version="1.0" encoding="utf-8"?>
<svg id="Layer_1" data-name="Layer 1" xmlns="http://www.w3.org/2000/svg" viewBox="0 0 71.99 41.45"><defs><style>.cls-1{fill:none;stroke-width:0.75px;}.cls-1,.cls-2,.cls-3,.cls-4,.cls-5{stroke:#231f20;stroke-miterlimit:10;}.cls-2{fill:#1e3c71;}.cls-2,.cls-3,.cls-4,.cls-5{stroke-width:0.5px;}.cls-3{fill:#1b75bc;}.cls-4{fill:#585852;}.cls-5{fill:#1a75bc;}.cls-6{fill:#fff;}.cls-7{fill:#231f20;}</style></defs><title>int</title><g id="Intergration"><polygon class="cls-1" points="59.92 38.63 38.47 38.63 27.75 20.7 38.47 2.77 59.92 2.77 70.64 20.7 59.92 38.63"/><line class="cls-1" x1="38.39" y1="2.7" x2="59.95" y2="38.64"/><line class="cls-1" x1="59.89" y1="2.75" x2="38.34" y2="38.74"/><line class="cls-1" x1="27.72" y1="20.71" x2="70.52" y2="20.67"/><polygon class="cls-2" points="49.15 20.7 49.17 25.12 45.2 22.93 49.15 20.7"/><polygon class="cls-2" points="49.18 20.66 53.13 18.43 49.16 16.24 49.18 20.66"/><polygon class="cls-3" points="49.09 20.67 45.12 18.49 45.15 22.9 49.09 20.67"/><polygon class="cls-4" points="49.2 20.72 53.17 22.91 49.22 25.13 49.2 20.72"/><polygon class="cls-4" points="49.13 20.63 49.09 16.21 45.15 18.45 49.13 20.63"/><polygon class="cls-5" points="53.2 22.86 53.17 18.45 49.23 20.68 53.2 22.86"/><polygon class="cls-3" points="30.27 20.67 26.3 18.49 26.33 22.9 30.27 20.67"/><polygon class="cls-4" points="39.72 4.88 39.68 0.47 35.74 2.71 39.72 4.88"/><polygon class="cls-2" points="58.65 4.84 62.6 2.62 58.63 0.42 58.65 4.84"/><polygon class="cls-2" points="39.58 36.61 39.6 41.03 35.63 38.84 39.58 36.61"/><polygon class="cls-4" points="58.73 36.51 62.7 38.7 58.75 40.93 58.73 36.51"/><polygon class="cls-3" points="71.74 22.88 71.71 18.47 67.76 20.7 71.74 22.88"/><rect class="cls-6" x="20.93" y="14.63" width="18.64" height="10.85"/><path class="cls-7" d="M.11,24.1H1.24v8.95H.11Z" transform="translate(-0.11 -8.48)"/><path class="cls-7" d="M2,24.1H3.25l1.3,6.2V24.1h1v8.95H4.35l-1.3-6.11v6.11H2Z" transform="translate(-0.11 -8.48)"/><path class="cls-7" d="M8.29,25.05v8H7.16v-8H6.08V24.1H9.37v.95Z" transform="translate(-0.11 -8.48)"/><path class="cls-7" d="M9.86,24.1h2.81v1H11v3h1.45v1H11v3.08h1.69v1H9.86Z" transform="translate(-0.11 -8.48)"/><path class="cls-7" d="M13.26,24.81,14,24.1h1.86l.71.71V26.7H15.4V25.3l-.24-.23h-.53l-.23.23v6.55l.23.23h.53l.24-.23V29.4h-.57v-1h1.71v4l-.71.71H14l-.71-.71Z" transform="translate(-0.11 -8.48)"/><path class="cls-7" d="M17.26,24.1h2.62l.71.71v3.72l-.62.62.7,3.9H19.58l-.7-3.82h-.49v3.82H17.26Zm2.2,4v-2.8l-.24-.23h-.83v3.27h.83Z" transform="translate(-0.11 -8.48)"/><path class="cls-7" d="M22.47,30.74l-.22,2.31H21.11l1.08-8.95h1.63l1.1,8.95H23.74l-.23-2.31ZM23,25.27l-.43,4.5h.87Z" transform="translate(-0.11 -8.48)"/><path class="cls-7" d="M26.75,25.05v8H25.62v-8H24.54V24.1h3.29v.95Z" transform="translate(-0.11 -8.48)"/><path class="cls-7" d="M28.33,24.1h1.13v8.95H28.33Z" transform="translate(-0.11 -8.48)"/><path class="cls-7" d="M33.6,32.34l-.71.71h-2l-.71-.71V24.81l.71-.71h2l.71.71Zm-2-7.27-.24.23v6.55l.24.23h.65l.24-.23V25.3l-.24-.23Z" transform="translate(-0.11 -8.48)"/><path class="cls-7" d="M34.35,24.1h1.23l1.3,6.2V24.1h1v8.95H36.68l-1.3-6.11v6.11h-1Z" transform="translate(-0.11 -8.48)"/></g></svg>