<?xml version="1.0" encoding="utf-8"?>
<svg id="Layer_1" data-name="Layer 1" xmlns="http://www.w3.org/2000/svg" viewBox="0 0 42.99 43.33"><defs><style>.cls-1{fill:#1b75bc;}.cls-2{fill:#1e3c71;stroke:#1e3c71;stroke-miterlimit:10;stroke-width:0.5px;}.cls-3{fill:#585852;}.cls-4{fill:#fff;}.cls-5{fill:#231f20;}</style></defs><title>iot</title><g id="IOT"><path class="cls-1" d="M41.68,28.17H31.82V26.75h2.66a.61.61,0,0,0,.61-.62.61.61,0,0,0-.61-.62H31.82V24.09h1.85a2.54,2.54,0,0,0,1.82-.77l4-4.09a1.9,1.9,0,0,0,.85.2,1.87,1.87,0,0,0,1.36-.57,2,2,0,0,0,0-2.76,1.87,1.87,0,0,0-1.36-.57A1.91,1.91,0,0,0,39,16.1a2,2,0,0,0-.36,2.25l-4,4.09a1.32,1.32,0,0,1-.95.41H31.82V21.47a3.26,3.26,0,0,0-3.23-3.28H27.23V12.68a1.92,1.92,0,1,0-1.22,0v5.51H24.62v-2.7a.63.63,0,0,0-.62-.63.62.62,0,0,0-.61.63v2.7H22v-10a.62.62,0,1,0-1.23,0v10H19.38v-2.7a.62.62,0,1,0-1.23,0v2.7H16.76V16.31A2.62,2.62,0,0,0,16,14.46l-4-4.09a2,2,0,0,0-.36-2.25,1.91,1.91,0,0,0-2.72,0,2,2,0,0,0,0,2.76,1.92,1.92,0,0,0,1.36.57,2,2,0,0,0,.86-.2l4,4.09a1.4,1.4,0,0,1,.39,1v1.88H14.18a3.21,3.21,0,0,0-.81.1.64.64,0,0,0-.44.76.63.63,0,0,0,.75.45,2.08,2.08,0,0,1,.5-.07H28.59a2,2,0,0,1,2,2V36.1a2.1,2.1,0,0,1-.06.51.62.62,0,0,0,.44.76l.15,0a.62.62,0,0,0,.6-.47,3.68,3.68,0,0,0,.1-.82V34.73h5.42a2,2,0,1,0,0-1.24H31.82V32.07h2.66a.61.61,0,0,0,.61-.62.61.61,0,0,0-.61-.62H31.82V29.41h9.86a.61.61,0,0,0,.61-.62A.61.61,0,0,0,41.68,28.17ZM39.88,17a.71.71,0,0,1,.49-.21.69.69,0,0,1,.49.21.7.7,0,0,1,0,1,.65.65,0,0,1-.49.21.67.67,0,0,1-.49-.21.7.7,0,0,1,0-1ZM10.75,10a.69.69,0,0,1-1,0,.72.72,0,0,1,0-1,.68.68,0,0,1,.49-.21.7.7,0,0,1,.5.21A.72.72,0,0,1,10.75,10Zm15.87,1.54a.71.71,0,1,1,.7-.71A.7.7,0,0,1,26.62,11.54ZM39.06,33.4a.71.71,0,1,1-.69.71A.7.7,0,0,1,39.06,33.4Z" transform="translate(0.06 -6.91)"/><path class="cls-2" d="M33.65,45.74a1.8,1.8,0,0,0-2.11-.35l-3.85-3.91a1.34,1.34,0,0,1-.38-.93V38.76H28.6a2.86,2.86,0,0,0,.77-.1.59.59,0,1,0-.29-1.15,1.51,1.51,0,0,1-.48.07H14.84a1.94,1.94,0,0,1-1.91-1.95v-14a2,2,0,0,1,.06-.49.59.59,0,1,0-1.14-.29,3.33,3.33,0,0,0-.09.78V23H6.58a1.87,1.87,0,1,0,0,1.19h5.18v1.35H9.22a.59.59,0,0,0,0,1.18h2.54v1.36H2.34a.59.59,0,0,0,0,1.18h9.42v1.35H9.22a.59.59,0,0,0-.59.6.58.58,0,0,0,.59.59h2.54v1.35H10a2.44,2.44,0,0,0-1.74.73L4.4,37.77a1.75,1.75,0,0,0-.81-.19,1.81,1.81,0,0,0-1.3.54,1.88,1.88,0,0,0,0,2.64,1.81,1.81,0,0,0,1.3.54,1.78,1.78,0,0,0,1.29-.54,1.87,1.87,0,0,0,.54-1.32,1.81,1.81,0,0,0-.19-.83L9.08,34.7a1.3,1.3,0,0,1,.91-.38h1.77v1.31a3.11,3.11,0,0,0,3.08,3.13h1.3V44a1.84,1.84,0,1,0,1.17,0V38.76h1.33v2.58a.59.59,0,1,0,1.17,0V38.76h1.33v9.56a.59.59,0,1,0,1.17,0V38.76h1.33v2.58a.59.59,0,1,0,1.17,0V38.76h1.33v1.79a2.52,2.52,0,0,0,.72,1.77l3.85,3.91a1.88,1.88,0,0,0,.35,2.14,1.8,1.8,0,0,0,1.3.55,1.76,1.76,0,0,0,1.29-.55A1.87,1.87,0,0,0,33.65,45.74ZM4.84,24.25a.68.68,0,0,1-.67-.68.67.67,0,1,1,.67.68ZM4.06,39.92a.7.7,0,0,1-.47.19.67.67,0,0,1-.47-.19.68.68,0,0,1,0-1,.63.63,0,0,1,.47-.2.67.67,0,0,1,.47.2.7.7,0,0,1,0,1Zm13.33,5.87a.67.67,0,1,1-.67-.68A.67.67,0,0,1,17.39,45.79Zm15.44,1.74a.66.66,0,0,1-.95,0,.68.68,0,0,1,.48-1.15.67.67,0,0,1,.47.2A.68.68,0,0,1,32.83,47.53Z" transform="translate(0.06 -6.91)"/><path class="cls-3" d="M27.85,26.92a2.75,2.75,0,0,0-2.11-2.58,1.76,1.76,0,0,0,.06-.46,2.2,2.2,0,0,0-2.28-2.09,2.37,2.37,0,0,0-1.71.71,2.41,2.41,0,0,0-1.72-.71,2.2,2.2,0,0,0-2.28,2.09,1.76,1.76,0,0,0,.06.46,2.75,2.75,0,0,0-2.11,2.58,2.48,2.48,0,0,0,.6,1.62,2.84,2.84,0,0,0-.6,1.73,2.93,2.93,0,0,0,1.37,2.43h0a2.53,2.53,0,0,0,2.62,2.4,2.76,2.76,0,0,0,2.06-.91,2.72,2.72,0,0,0,2.05.91,2.55,2.55,0,0,0,2.62-2.25,2.67,2.67,0,0,0,1.37-2.28,2.56,2.56,0,0,0-.79-1.82A2.56,2.56,0,0,0,27.85,26.92Zm-2,2.33a1.54,1.54,0,0,1,.87,1.32,1.46,1.46,0,0,1-.5,1.07,2.57,2.57,0,0,0-1.5-1.2.56.56,0,0,0-.71.37.57.57,0,0,0,.37.71,1.3,1.3,0,0,1,1,1.18,1.51,1.51,0,0,1-3,0V29.05a1.39,1.39,0,0,1,1.49-1.25.58.58,0,0,0,.57-.57.57.57,0,0,0-.57-.57,2.79,2.79,0,0,0-1.49.42v-.73a.57.57,0,1,0-1.13,0v3.16a3,3,0,0,0-.63-.29.57.57,0,1,0-.34,1.09,1.28,1.28,0,0,1,1,1.18V32.7A1.39,1.39,0,0,1,19.75,34a1.38,1.38,0,0,1-1.48-1.26,1.15,1.15,0,0,1,.35-.81.57.57,0,0,0-.8-.81,2.81,2.81,0,0,0-.35.44,1.72,1.72,0,0,1-.57-1.25,1.94,1.94,0,0,1,1.61-1.8.57.57,0,1,0-.26-1.11,3.55,3.55,0,0,0-1,.42,1.38,1.38,0,0,1-.31-.86,1.71,1.71,0,0,1,1.81-1.56h0a.53.53,0,0,0,.36-.13.56.56,0,0,0,.12-.73v0h0l0,0h0a.9.9,0,0,1-.21-.55,1.17,1.17,0,0,1,2.29,0,.57.57,0,1,0,1.13,0,1.17,1.17,0,0,1,2.29,0,.8.8,0,0,1-.09.36,3.34,3.34,0,0,0-.93.23.57.57,0,1,0,.44,1.05,2.32,2.32,0,0,1,.79-.16h0a1.71,1.71,0,0,1,1.81,1.56,1.51,1.51,0,0,1-.87,1.32.58.58,0,0,0-.31.51A.57.57,0,0,0,25.84,29.25Z" transform="translate(0.06 -6.91)"/><rect class="cls-4" x="29.53" y="16.75" width="7.55" height="9.82"/><path class="cls-5" d="M28.72,24.06h1.14v9H28.72Z" transform="translate(0.06 -6.91)"/><path class="cls-5" d="M34,32.38l-.72.71h-2l-.71-.71V24.77l.71-.71h2l.72.71ZM32,25l-.24.24v6.61l.24.23h.65l.24-.23V25.27L32.64,25Z" transform="translate(0.06 -6.91)"/><path class="cls-5" d="M36.65,25v8.08H35.51V25H34.43v-1h3.31v1Z" transform="translate(0.06 -6.91)"/><polygon class="cls-2" points="21.71 42.83 23.36 39.98 20.07 39.98 21.71 42.83"/><polygon class="cls-2" points="0.5 21.99 3.35 23.63 3.35 20.34 0.5 21.99"/><polygon class="cls-1" points="21.41 0 19.77 2.85 23.06 2.85 21.41 0"/><rect class="cls-4" x="36.96" y="20.62" width="6.03" height="3.01"/></g></svg>