<?xml version="1.0" encoding="utf-8"?>
<svg id="Layer_1" data-name="Layer 1" xmlns="http://www.w3.org/2000/svg" viewBox="0 0 67.54 41.11"><defs><style>.cls-1{fill:#1b75bc;}.cls-2{fill:#1e3c71;stroke:#1e3c71;stroke-miterlimit:10;stroke-width:0.5px;}.cls-3{fill:#fff;}.cls-4{fill:#231f20;}</style></defs><title>mes</title><g id="Messaging"><path class="cls-1" d="M59.81,49.8a.78.78,0,0,1-.58-.24L48.47,38.84H31.82a4.11,4.11,0,0,1-4.11-4.11V12.8a4.12,4.12,0,0,1,4.11-4.11H63.61a4.12,4.12,0,0,1,4.11,4.11V34.73a4.11,4.11,0,0,1-4.11,4.11h-4l1,10.06a.82.82,0,0,1-.47.82A.72.72,0,0,1,59.81,49.8Zm-28-39.46a2.47,2.47,0,0,0-2.47,2.46V34.73a2.47,2.47,0,0,0,2.47,2.46h17a.83.83,0,0,1,.58.24l9.36,9.34-.89-8.67a.81.81,0,0,1,.21-.63.78.78,0,0,1,.61-.28h4.93a2.47,2.47,0,0,0,2.47-2.46V12.8a2.47,2.47,0,0,0-2.47-2.46Z" transform="translate(-0.18 -8.69)"/><path class="cls-2" d="M51.84,31.06a8.81,8.81,0,0,1-4.3,1,7.17,7.17,0,0,1-7.3-7.52c0-5,3.45-9.27,8.8-9.27a6.7,6.7,0,0,1,7,7c0,3.61-2,5.74-4.29,5.74A1.79,1.79,0,0,1,50,25.82h-.1A3.78,3.78,0,0,1,46.48,28a2.74,2.74,0,0,1-2.6-3,5.7,5.7,0,0,1,5.71-5.72,6.39,6.39,0,0,1,2.59.51l-.82,4.36c-.37,1.84-.08,2.68.72,2.7,1.23,0,2.6-1.61,2.6-4.41,0-3.5-2.09-6-5.83-6-3.93,0-7.24,3.12-7.24,8,0,4,2.63,6.52,6.2,6.52A7.47,7.47,0,0,0,51.45,30ZM50.51,20.64a4.22,4.22,0,0,0-1.2-.17,4.14,4.14,0,0,0-3.84,4.34c0,1.06.53,1.83,1.59,1.83,1.4,0,2.68-1.78,2.94-3.28Z" transform="translate(-0.18 -8.69)"/><rect class="cls-3" x="24.49" y="7.21" width="13.27" height="10.38"/><path class="cls-4" d="M2.11,25.64l-.89-7.08v7.08h-1v-9H1.83l.85,7.3.84-7.3H5.21v9H4.13V18.56l-.89,7.08Z" transform="translate(-0.18 -8.69)"/><path class="cls-4" d="M6,16.61H8.81v1H7.13v3H8.59v1H7.13v3.11h1.7v1H6Z" transform="translate(-0.18 -8.69)"/><path class="cls-4" d="M11.31,17.8l-.23-.24h-.42l-.24.24v2.54l.24.24h1.12l.71.71v3.64l-.71.71H10l-.71-.71V23H10.4v1.42l.24.23h.47l.24-.23V21.79l-.24-.23H10l-.71-.72V17.32l.71-.71h1.75l.72.71v1.91H11.31Z" transform="translate(-0.18 -8.69)"/><path class="cls-4" d="M15.12,17.8l-.24-.24h-.42l-.24.24v2.54l.24.24h1.12l.71.71v3.64l-.71.71H13.77l-.71-.71V23H14.2v1.42l.24.23h.47l.24-.23V21.79l-.24-.23H13.8l-.72-.72V17.32l.72-.71h1.74l.72.71v1.91H15.12Z" transform="translate(-0.18 -8.69)"/><path class="cls-4" d="M18,23.31l-.23,2.33H16.61l1.08-9h1.64l1.11,9H19.25L19,23.31Zm.52-5.52-.44,4.55h.88Z" transform="translate(-0.18 -8.69)"/><path class="cls-4" d="M20.83,17.32l.71-.71h1.87l.71.71v1.92H23V17.82l-.24-.24h-.53l-.24.24v6.61l.24.24h.53l.24-.24V22h-.57v-1h1.71v4l-.71.71H21.54l-.71-.71Z" transform="translate(-0.18 -8.69)"/><path class="cls-4" d="M24.84,16.61H26v9H24.84Z" transform="translate(-0.18 -8.69)"/><path class="cls-4" d="M26.77,16.61H28l1.31,6.26V16.61h1v9H29.11L27.8,19.48v6.16h-1Z" transform="translate(-0.18 -8.69)"/><path class="cls-4" d="M31.09,17.32l.71-.71h1.87l.71.71v1.92H33.24V17.82L33,17.58h-.54l-.24.24v6.61l.24.24H33l.23-.24V22h-.57v-1h1.71v4l-.71.71H31.8l-.71-.71Z" transform="translate(-0.18 -8.69)"/></g></svg>